<svg width="89" height="36" viewBox="0 0 89 36" fill="none" xmlns="http://www.w3.org/2000/svg">
<path d="M7.16 -1.90735e-06V22.16H19.36V28H0.2V-1.90735e-06H7.16ZM31.5503 28.28C29.577 28.28 27.817 27.8667 26.2703 27.04C24.7236 26.2133 23.497 25.0267 22.5903 23.48C21.7103 21.9333 21.2703 20.1067 21.2703 18C21.2703 15.8933 21.7236 14.08 22.6303 12.56C23.537 11.0133 24.7636 9.82667 26.3103 9C27.8836 8.14667 29.657 7.72 31.6303 7.72C33.6036 7.72 35.377 8.14667 36.9503 9C38.5236 9.82667 39.7636 11.0133 40.6703 12.56C41.577 14.08 42.0303 15.8933 42.0303 18C42.0303 20.1067 41.5636 21.9333 40.6303 23.48C39.7236 25.0267 38.4703 26.2133 36.8703 27.04C35.297 27.8667 33.5236 28.28 31.5503 28.28ZM31.5503 22.32C32.137 22.32 32.6836 22.16 33.1903 21.84C33.7236 21.52 34.1503 21.04 34.4703 20.4C34.7903 19.76 34.9503 18.96 34.9503 18C34.9503 17.04 34.7903 16.24 34.4703 15.6C34.1503 14.96 33.737 14.48 33.2303 14.16C32.7236 13.84 32.1903 13.68 31.6303 13.68C31.017 13.68 30.457 13.84 29.9503 14.16C29.4703 14.48 29.0836 14.96 28.7903 15.6C28.497 16.24 28.3503 17.04 28.3503 18C28.3503 18.96 28.4836 19.76 28.7503 20.4C29.0436 21.04 29.4303 21.52 29.9103 21.84C30.417 22.16 30.9636 22.32 31.5503 22.32ZM58.9153 8H64.8353V25.16C64.8353 27.4267 64.2753 29.36 63.1553 30.96C62.062 32.5867 60.4486 33.8267 58.3153 34.68C56.2086 35.56 53.622 36 50.5553 36L49.5953 30.64C52.422 30.64 54.5686 30.2133 56.0353 29.36C57.5286 28.5067 58.2753 27.2667 58.2753 25.64V25.56L59.3153 24.8C58.7286 25.7333 57.902 26.5467 56.8353 27.24C55.7953 27.9333 54.5286 28.28 53.0353 28.28C51.382 28.28 49.902 27.8667 48.5953 27.04C47.2886 26.1867 46.262 25 45.5153 23.48C44.7686 21.9333 44.3953 20.1067 44.3953 18C44.3953 15.8667 44.7686 14.04 45.5153 12.52C46.262 10.9733 47.2886 9.78667 48.5953 8.96C49.902 8.13333 51.382 7.72 53.0353 7.72C53.8353 7.72 54.582 7.85333 55.2753 8.12C55.9953 8.36 56.6353 8.69333 57.1953 9.12C57.7553 9.52 58.2086 9.98667 58.5553 10.52L58.9153 8ZM51.4753 18C51.4753 19.2533 51.782 20.2667 52.3953 21.04C53.0353 21.8133 53.862 22.2 54.8753 22.2C55.462 22.2 56.0086 22.04 56.5153 21.72C57.0486 21.3733 57.4753 20.8933 57.7953 20.28C58.1153 19.64 58.2753 18.88 58.2753 18C58.2753 17.0933 58.1153 16.3333 57.7953 15.72C57.4753 15.1067 57.062 14.64 56.5553 14.32C56.0486 14 55.502 13.84 54.9153 13.84C53.8753 13.84 53.0353 14.2267 52.3953 15C51.782 15.7467 51.4753 16.7467 51.4753 18ZM78.2691 28.28C76.2957 28.28 74.5357 27.8667 72.9891 27.04C71.4424 26.2133 70.2157 25.0267 69.3091 23.48C68.4291 21.9333 67.9891 20.1067 67.9891 18C67.9891 15.8933 68.4424 14.08 69.3491 12.56C70.2557 11.0133 71.4824 9.82667 73.0291 9C74.6024 8.14667 76.3757 7.72 78.3491 7.72C80.3224 7.72 82.0957 8.14667 83.6691 9C85.2424 9.82667 86.4824 11.0133 87.3891 12.56C88.2957 14.08 88.7491 15.8933 88.7491 18C88.7491 20.1067 88.2824 21.9333 87.3491 23.48C86.4424 25.0267 85.1891 26.2133 83.5891 27.04C82.0157 27.8667 80.2424 28.28 78.2691 28.28ZM78.2691 22.32C78.8557 22.32 79.4024 22.16 79.9091 21.84C80.4424 21.52 80.8691 21.04 81.1891 20.4C81.5091 19.76 81.6691 18.96 81.6691 18C81.6691 17.04 81.5091 16.24 81.1891 15.6C80.8691 14.96 80.4557 14.48 79.9491 14.16C79.4424 13.84 78.9091 13.68 78.3491 13.68C77.7357 13.68 77.1757 13.84 76.6691 14.16C76.1891 14.48 75.8024 14.96 75.5091 15.6C75.2157 16.24 75.0691 17.04 75.0691 18C75.0691 18.96 75.2024 19.76 75.4691 20.4C75.7624 21.04 76.1491 21.52 76.6291 21.84C77.1357 22.16 77.6824 22.32 78.2691 22.32Z" fill="black"/>
</svg>
